<svg id="svg" version="1.1" xmlns="http://www.w3.org/2000/svg" xmlns:xlink="http://www.w3.org/1999/xlink" width="400" height="400" viewBox="0, 0, 400,400"><g id="svgg"><path id="path0" d="M164.000 0.800 C 164.000 1.528,154.820 2.116,151.246 1.618 C 150.264 1.481,148.800 2.001,148.800 2.488 C 148.800 2.847,148.915 2.845,149.280 2.480 C 150.066 1.694,150.461 1.936,149.700 2.737 C 149.315 3.142,148.865 3.401,148.700 3.313 C 148.535 3.225,148.400 3.523,148.400 3.976 C 148.400 4.752,148.163 4.802,144.300 4.831 C 142.045 4.847,139.851 4.927,139.424 5.006 C 137.114 5.438,136.769 5.654,136.538 6.811 L 136.300 8.000 133.250 8.043 C 131.572 8.066,129.930 8.125,129.600 8.174 C 129.270 8.223,128.686 8.294,128.301 8.332 C 127.917 8.369,127.369 8.972,127.084 9.671 C 126.609 10.833,126.395 10.951,124.583 11.046 C 120.772 11.245,120.602 11.306,120.582 12.485 C 120.557 13.946,120.530 13.960,117.590 14.048 C 115.044 14.124,113.892 14.656,114.028 15.691 C 114.212 17.090,113.990 17.200,111.000 17.200 L 108.000 17.200 108.000 18.800 L 108.000 20.400 105.400 20.450 C 103.970 20.478,102.575 20.523,102.300 20.550 C 102.023 20.578,101.745 21.269,101.676 22.100 L 101.552 23.600 98.558 23.600 C 96.398 23.600,95.582 23.739,95.626 24.100 C 95.824 25.728,95.134 26.329,92.750 26.606 C 90.176 26.905,89.200 27.551,89.200 28.959 C 89.200 29.734,89.031 29.837,88.000 29.685 C 87.249 29.575,86.800 29.685,86.800 29.978 C 86.800 30.236,86.647 30.353,86.460 30.237 C 86.274 30.122,86.105 30.580,86.086 31.255 C 86.042 32.800,86.252 32.674,83.214 32.975 C 80.472 33.246,79.887 33.650,80.135 35.100 C 80.290 36.003,79.799 36.210,77.935 36.027 C 77.570 35.991,77.137 36.178,76.974 36.443 C 76.770 36.772,76.853 36.823,77.238 36.603 C 77.693 36.344,77.704 36.386,77.300 36.821 C 77.025 37.118,76.800 37.774,76.800 38.280 C 76.800 39.134,75.906 39.450,73.983 39.275 C 73.864 39.264,73.724 39.808,73.672 40.483 C 73.544 42.166,73.335 42.400,71.964 42.400 C 69.467 42.400,67.776 43.579,67.925 45.217 C 67.936 45.336,67.384 45.477,66.699 45.529 C 65.114 45.650,64.400 46.246,64.400 47.449 C 64.400 48.133,64.176 48.400,63.600 48.400 C 63.160 48.400,62.800 48.560,62.800 48.756 C 62.800 48.951,62.485 49.086,62.100 49.056 C 61.597 49.016,61.389 49.312,61.360 50.107 C 61.308 51.528,61.062 51.747,59.490 51.776 C 58.313 51.798,58.194 51.917,58.133 53.133 C 58.051 54.786,57.927 54.910,56.307 54.960 C 55.108 54.997,54.997 55.110,54.960 56.339 C 54.915 57.831,54.310 58.406,53.115 58.094 C 52.167 57.846,51.615 58.580,51.606 60.100 C 51.600 61.192,51.230 61.393,49.536 61.227 C 48.830 61.158,48.123 63.229,48.594 63.990 C 48.745 64.234,48.372 64.400,47.673 64.400 C 46.205 64.400,45.594 65.112,45.527 66.899 C 45.491 67.848,45.290 68.276,44.893 68.245 C 44.037 68.179,42.718 70.126,42.437 71.874 C 42.208 73.296,42.088 73.408,40.695 73.524 C 39.242 73.645,39.200 73.693,39.200 75.224 C 39.200 76.602,39.084 76.800,38.280 76.800 C 37.774 76.800,37.118 77.025,36.821 77.300 C 36.386 77.704,36.344 77.693,36.603 77.238 C 36.823 76.853,36.772 76.770,36.443 76.974 C 36.178 77.137,35.991 77.570,36.027 77.935 C 36.184 79.538,35.977 80.000,35.100 80.006 C 33.371 80.018,32.930 80.966,32.829 84.900 C 32.803 85.889,32.656 86.000,31.376 86.000 C 30.529 86.000,30.053 86.162,30.200 86.400 C 30.336 86.620,30.234 86.800,29.974 86.800 C 29.661 86.800,29.581 87.207,29.740 88.000 C 29.953 89.067,29.873 89.200,29.019 89.200 C 27.546 89.200,26.908 90.147,26.601 92.788 C 26.369 94.794,26.193 95.200,25.561 95.200 C 25.142 95.200,24.800 95.374,24.800 95.587 C 24.800 95.801,24.556 95.881,24.257 95.766 C 23.834 95.604,23.697 96.200,23.640 98.462 C 23.555 101.847,23.697 101.570,21.967 101.709 L 20.600 101.819 20.468 104.730 C 20.318 108.017,20.697 108.800,22.436 108.800 C 23.201 108.800,24.212 109.356,25.525 110.500 C 26.599 111.435,28.503 113.010,29.758 114.000 C 35.212 118.305,38.147 120.767,40.534 123.043 C 41.251 123.726,42.225 124.492,42.698 124.745 C 43.171 124.998,44.365 125.879,45.352 126.703 C 46.338 127.526,48.152 129.010,49.383 130.000 C 50.613 130.990,52.229 132.340,52.973 133.000 C 54.229 134.114,55.176 134.922,59.400 138.487 C 60.280 139.229,61.489 140.144,62.087 140.519 C 62.684 140.894,64.754 142.541,66.687 144.180 C 72.191 148.846,72.867 149.418,75.067 151.265 C 76.204 152.219,77.992 153.630,79.041 154.400 C 80.089 155.170,81.894 156.663,83.050 157.719 C 84.302 158.860,85.850 159.839,86.874 160.136 C 88.058 160.478,88.632 160.878,88.713 161.417 C 89.050 163.653,89.237 164.000,90.108 163.994 C 91.438 163.985,92.060 163.437,91.963 162.361 C 91.915 161.833,91.904 159.915,91.938 158.100 L 92.000 154.800 93.100 154.794 C 94.826 154.784,95.067 154.388,95.168 151.402 C 95.278 148.130,95.118 148.429,96.833 148.291 C 98.184 148.181,98.201 148.156,98.323 146.072 C 98.448 143.921,100.318 141.255,101.284 141.852 C 101.493 141.981,101.630 141.753,101.586 141.344 C 101.333 138.950,101.554 138.480,102.900 138.541 C 104.123 138.597,104.197 138.523,104.141 137.300 C 104.109 136.585,104.226 136.000,104.401 136.000 C 104.576 136.000,104.720 135.358,104.720 134.573 C 104.720 132.854,104.800 132.758,106.281 132.716 C 107.323 132.686,107.454 132.534,107.540 131.256 C 107.657 129.526,107.561 129.625,109.233 129.492 C 110.499 129.392,110.609 129.274,110.724 127.892 C 110.837 126.540,110.958 126.400,112.010 126.400 C 113.246 126.400,114.000 125.500,114.000 124.026 C 114.000 123.438,114.259 123.198,114.900 123.194 C 116.322 123.184,116.931 122.599,116.713 121.455 C 116.604 120.888,116.670 120.519,116.858 120.636 C 117.046 120.752,117.200 120.679,117.200 120.474 C 117.200 120.268,117.744 119.991,118.408 119.858 C 119.354 119.669,119.669 119.353,119.859 118.403 C 120.036 117.521,120.388 117.121,121.151 116.940 C 122.642 116.584,123.200 116.043,123.200 114.951 C 123.200 114.257,123.423 114.000,124.026 114.000 C 125.512 114.000,126.400 113.247,126.400 111.986 C 126.400 111.036,126.579 110.791,127.300 110.754 C 127.795 110.728,128.464 110.683,128.787 110.654 C 129.158 110.620,129.398 110.114,129.441 109.279 C 129.525 107.643,129.509 107.658,131.314 107.537 C 132.130 107.482,132.777 107.248,132.751 107.018 C 132.511 104.840,132.392 104.907,137.600 104.314 C 138.386 104.224,138.609 103.963,138.640 103.093 C 138.692 101.669,138.869 101.520,140.494 101.520 C 141.758 101.520,141.848 101.430,141.939 100.075 C 142.060 98.284,141.691 98.482,145.194 98.330 L 148.181 98.200 148.291 96.833 C 148.429 95.118,148.130 95.278,151.402 95.168 C 154.388 95.067,154.784 94.826,154.794 93.100 L 154.800 92.000 158.300 91.954 C 160.225 91.929,162.140 91.944,162.555 91.988 C 163.439 92.083,163.985 91.365,163.994 90.100 C 164.001 89.125,164.783 88.994,169.455 89.184 C 170.586 89.230,171.627 89.081,171.768 88.852 C 171.910 88.622,172.262 88.526,172.551 88.637 C 172.913 88.776,173.088 88.446,173.113 87.578 C 173.133 86.885,173.209 86.258,173.283 86.184 C 173.357 86.110,178.145 85.994,183.923 85.925 C 195.207 85.791,195.180 85.796,195.194 83.700 C 195.200 82.818,195.294 82.800,199.917 82.800 L 204.635 82.800 205.017 84.100 C 205.364 85.278,205.539 85.396,206.889 85.355 C 207.709 85.331,208.292 85.452,208.185 85.625 C 208.078 85.797,211.794 85.955,216.442 85.974 L 224.893 86.010 225.746 87.073 C 226.216 87.658,226.728 88.331,226.885 88.568 C 227.042 88.806,228.572 89.029,230.285 89.063 C 236.389 89.188,235.999 89.117,236.006 90.100 C 236.015 91.365,236.561 92.083,237.445 91.988 C 237.860 91.944,239.775 91.929,241.700 91.954 L 245.200 92.000 245.206 93.100 C 245.216 94.826,245.612 95.067,248.598 95.168 C 251.870 95.278,251.571 95.118,251.709 96.833 C 251.819 98.184,251.844 98.201,253.928 98.323 C 256.059 98.447,258.747 100.315,258.160 101.264 C 258.030 101.475,259.832 101.579,262.468 101.513 C 265.733 101.432,267.014 101.260,267.050 100.900 C 267.078 100.625,267.123 99.950,267.150 99.400 C 267.191 98.571,267.402 98.400,268.376 98.400 C 269.023 98.400,269.659 98.228,269.789 98.017 C 269.919 97.807,270.276 97.731,270.582 97.848 C 271.501 98.201,272.718 97.282,272.994 96.026 C 273.171 95.220,273.436 94.916,273.828 95.066 C 275.324 95.640,276.508 94.824,276.274 93.380 C 276.045 91.968,276.696 91.648,279.129 91.977 C 279.422 92.016,279.625 91.724,279.583 91.324 C 279.402 89.583,279.603 89.302,281.216 89.044 C 282.149 88.895,282.805 88.577,282.768 88.293 C 282.529 86.425,282.796 86.000,284.210 86.000 C 285.303 86.000,285.697 85.798,285.964 85.100 C 286.499 83.701,287.776 82.767,289.434 82.562 C 291.295 82.331,292.000 81.785,292.000 80.575 C 292.000 79.793,292.234 79.629,293.500 79.524 C 294.893 79.409,295.005 79.305,295.067 78.067 C 295.149 76.408,295.167 76.392,296.957 76.325 C 298.039 76.284,298.412 76.101,298.368 75.635 C 298.211 73.981,298.424 73.698,300.016 73.444 C 300.949 73.295,301.605 72.977,301.568 72.693 C 301.346 70.960,301.622 70.400,302.700 70.398 C 305.053 70.393,306.841 69.600,307.269 68.373 C 307.555 67.553,307.944 67.200,308.563 67.200 C 310.011 67.200,310.945 66.272,310.714 65.063 C 310.548 64.192,310.664 63.992,311.355 63.957 C 313.610 63.844,313.802 63.770,313.857 63.000 C 313.889 62.560,313.934 61.885,313.957 61.500 C 313.990 60.957,314.359 60.800,315.600 60.800 L 317.200 60.800 317.200 59.200 L 317.200 57.600 318.800 57.600 C 319.933 57.600,320.400 57.430,320.400 57.018 C 320.400 56.246,322.153 54.518,322.739 54.713 C 322.992 54.797,323.200 54.715,323.200 54.529 C 323.200 54.344,323.785 54.194,324.500 54.196 C 325.623 54.199,325.852 54.023,326.183 52.900 C 326.499 51.827,326.764 51.600,327.706 51.600 C 328.356 51.600,328.742 51.430,328.603 51.205 C 328.466 50.984,328.615 50.908,328.940 51.032 C 329.425 51.219,329.529 50.523,329.570 46.828 L 329.619 42.400 328.009 42.400 L 326.400 42.400 326.400 40.800 L 326.400 39.200 324.800 39.200 C 323.421 39.200,323.194 39.076,323.154 38.300 C 323.055 36.379,322.975 36.198,322.200 36.143 C 321.760 36.111,321.085 36.066,320.700 36.043 C 320.242 36.015,320.000 35.672,320.000 35.049 C 320.000 33.705,319.332 33.300,316.596 32.987 C 313.762 32.662,313.958 32.788,313.914 31.255 C 313.895 30.580,313.726 30.122,313.540 30.237 C 313.353 30.353,313.200 30.236,313.200 29.978 C 313.200 29.685,312.752 29.575,312.008 29.684 C 310.955 29.839,310.765 29.707,310.386 28.558 C 309.971 27.299,307.886 26.400,305.380 26.400 C 305.061 26.400,304.800 26.040,304.800 25.600 C 304.800 25.160,304.626 24.800,304.413 24.800 C 304.199 24.800,304.119 24.556,304.234 24.257 C 304.396 23.834,303.800 23.697,301.538 23.640 C 298.153 23.555,298.430 23.697,298.291 21.967 L 298.182 20.600 295.091 20.483 L 292.000 20.366 291.953 19.083 C 291.927 18.377,291.918 17.690,291.934 17.556 C 291.950 17.421,290.682 17.279,289.117 17.240 C 285.841 17.157,285.477 17.017,285.811 15.965 C 286.201 14.735,285.195 14.172,282.420 14.069 C 279.483 13.959,279.400 13.915,279.400 12.465 C 279.400 11.323,279.329 11.297,275.554 11.040 C 273.482 10.899,272.800 10.598,272.800 9.825 C 272.800 8.526,271.202 8.085,266.300 8.033 C 263.986 8.008,263.200 7.864,263.200 7.462 C 263.200 6.729,261.893 5.600,261.045 5.600 C 260.656 5.600,260.468 5.413,260.617 5.173 C 260.762 4.939,260.637 4.780,260.340 4.821 C 257.078 5.268,251.600 4.739,251.600 3.976 C 251.600 3.523,251.422 3.263,251.205 3.397 C 250.973 3.541,250.914 3.368,251.063 2.980 C 251.501 1.840,250.382 1.612,244.300 1.606 C 238.669 1.600,238.400 1.564,238.400 0.800 C 238.400 0.360,238.220 0.000,238.000 0.000 C 237.780 0.000,237.600 0.360,237.600 0.800 C 237.600 1.333,237.333 1.600,236.800 1.600 C 236.267 1.600,236.000 1.333,236.000 0.800 C 236.000 0.006,235.733 0.000,200.000 0.000 C 164.267 0.000,164.000 0.006,164.000 0.800 M262.400 7.662 C 262.400 7.848,262.040 8.000,261.600 8.000 C 261.001 8.000,260.800 7.733,260.800 6.938 C 260.800 5.901,260.819 5.893,261.600 6.600 C 262.040 6.998,262.400 7.476,262.400 7.662 M318.800 34.400 C 319.240 34.840,319.594 35.425,319.587 35.700 C 319.580 35.975,319.306 35.840,318.979 35.400 C 318.651 34.960,318.082 34.375,317.715 34.100 C 317.341 33.820,317.257 33.600,317.524 33.600 C 317.786 33.600,318.360 33.960,318.800 34.400 M325.379 53.223 C 324.992 53.650,324.484 54.000,324.249 54.000 C 324.014 54.000,324.222 53.720,324.711 53.377 C 325.200 53.035,325.614 52.450,325.632 52.077 C 325.653 51.625,325.733 51.574,325.873 51.923 C 325.988 52.211,325.766 52.796,325.379 53.223 M45.200 69.600 C 45.200 70.153,44.933 70.400,44.338 70.400 C 43.501 70.400,43.497 70.376,44.200 69.600 C 44.598 69.160,44.986 68.800,45.062 68.800 C 45.138 68.800,45.200 69.160,45.200 69.600 M291.218 81.166 C 290.973 81.625,290.590 82.000,290.367 82.000 C 290.145 82.000,290.286 81.568,290.681 81.039 C 291.531 79.903,291.853 79.979,291.218 81.166 M119.600 117.530 C 119.600 118.026,117.638 119.771,117.375 119.508 C 117.250 119.383,117.564 118.831,118.074 118.282 C 119.039 117.243,119.600 116.966,119.600 117.530 M0.000 162.000 C 0.000 162.220,0.360 162.400,0.800 162.400 C 1.240 162.400,1.600 162.220,1.600 162.000 C 1.600 161.780,1.240 161.600,0.800 161.600 C 0.360 161.600,0.000 161.780,0.000 162.000 M84.800 196.321 C 84.800 196.570,84.305 197.043,83.700 197.371 C 83.095 197.699,82.805 197.975,83.056 197.984 C 83.753 198.008,85.440 196.509,85.100 196.168 C 84.935 196.002,84.800 196.071,84.800 196.321 M86.022 224.700 C 86.054 225.133,88.400 226.928,88.400 226.519 C 88.400 225.857,87.147 224.400,86.577 224.400 C 86.260 224.400,86.010 224.535,86.022 224.700 M8.800 270.977 C 8.800 271.665,10.540 272.981,10.723 272.431 C 10.843 272.070,9.426 270.400,9.000 270.400 C 8.890 270.400,8.800 270.660,8.800 270.977 " stroke="none" fill="#f44434" fill-rule="evenodd"></path><path id="path1" d="M91.358 240.732 C 91.556 241.053,91.280 241.116,90.428 240.946 C 89.380 240.736,89.162 240.847,88.811 241.771 C 88.558 242.437,87.839 243.073,86.903 243.461 C 86.076 243.803,84.834 244.649,84.142 245.342 C 83.450 246.034,81.863 247.410,80.615 248.400 C 79.367 249.390,77.564 250.830,76.610 251.600 C 75.655 252.370,73.950 253.720,72.820 254.600 C 70.366 256.512,63.871 261.980,62.236 263.511 C 61.596 264.110,60.407 265.050,59.595 265.600 C 58.783 266.150,57.461 267.140,56.658 267.800 C 51.948 271.671,47.670 275.269,46.800 276.091 C 46.250 276.610,45.170 277.466,44.400 277.991 C 43.630 278.517,42.349 279.499,41.553 280.174 C 40.757 280.848,39.084 282.210,37.835 283.200 C 36.585 284.190,34.896 285.582,34.082 286.292 C 25.657 293.641,23.519 295.200,21.870 295.200 C 20.604 295.200,20.497 295.294,20.541 296.369 C 20.567 297.011,20.771 297.506,20.994 297.469 C 21.218 297.431,21.352 297.634,21.294 297.919 C 21.235 298.204,21.415 298.408,21.694 298.372 C 23.501 298.135,23.600 298.291,23.600 301.382 L 23.600 304.364 24.958 304.618 C 26.294 304.869,26.321 304.915,26.658 307.537 C 26.986 310.088,27.055 310.216,28.300 310.583 C 29.259 310.865,29.600 311.197,29.600 311.850 C 29.600 313.481,30.031 314.000,31.386 314.000 C 32.684 314.000,32.686 314.004,32.943 316.459 C 33.233 319.232,33.685 320.000,35.025 320.000 C 35.807 320.000,35.971 320.234,36.076 321.500 C 36.193 322.919,36.281 323.007,37.700 323.124 C 39.154 323.245,39.200 323.296,39.200 324.800 C 39.200 326.304,39.246 326.355,40.700 326.476 C 42.117 326.593,42.207 326.683,42.324 328.092 C 42.413 329.174,42.880 330.047,44.024 331.274 C 44.891 332.204,45.600 333.342,45.600 333.802 C 45.600 334.882,46.331 335.600,47.429 335.600 C 48.133 335.600,48.346 335.903,48.554 337.200 C 48.794 338.706,48.890 338.800,50.181 338.800 C 51.476 338.800,51.559 338.883,51.676 340.300 C 51.793 341.714,51.885 341.807,53.277 341.923 C 54.665 342.038,54.762 342.135,54.877 343.523 C 54.993 344.915,55.086 345.007,56.500 345.124 C 57.908 345.241,58.000 345.330,58.000 346.581 C 58.000 347.989,58.504 348.400,60.233 348.400 C 61.071 348.400,61.200 348.586,61.200 349.795 C 61.200 351.114,61.288 351.205,62.800 351.446 C 64.117 351.657,64.400 351.862,64.400 352.602 C 64.400 353.761,65.134 354.352,66.727 354.473 C 67.427 354.527,68.000 354.793,68.000 355.065 C 68.000 355.893,70.514 357.529,72.000 357.669 C 73.301 357.791,73.409 357.906,73.524 359.300 C 73.645 360.754,73.696 360.800,75.200 360.800 C 76.704 360.800,76.755 360.846,76.876 362.300 C 76.993 363.719,77.081 363.807,78.500 363.924 C 79.766 364.029,80.000 364.193,80.000 364.975 C 80.000 366.315,80.768 366.767,83.541 367.057 C 85.996 367.314,86.000 367.316,86.000 368.614 C 86.000 369.980,86.517 370.400,88.201 370.400 C 88.909 370.400,89.199 370.683,89.393 371.567 C 89.689 372.916,89.908 373.031,92.901 373.405 C 95.041 373.672,95.136 373.735,95.381 375.042 L 95.636 376.400 98.594 376.400 L 101.552 376.400 101.676 377.900 L 101.800 379.400 104.900 379.517 L 108.000 379.634 108.000 381.217 L 108.000 382.800 111.000 382.800 L 114.000 382.800 114.000 383.920 C 114.000 385.620,114.672 386.000,117.680 386.000 L 120.400 386.000 120.400 387.176 C 120.400 388.681,120.546 388.755,124.093 389.055 C 126.584 389.265,127.115 389.439,127.428 390.145 C 128.022 391.487,129.557 391.988,133.092 391.994 C 136.305 392.000,136.391 392.025,136.647 393.043 C 137.051 394.656,138.892 395.200,143.943 395.200 L 148.311 395.200 148.566 396.561 C 148.907 398.377,149.012 398.400,157.033 398.400 C 163.733 398.400,164.000 398.431,164.000 399.200 C 164.000 399.994,164.267 400.000,200.400 400.000 C 236.533 400.000,236.800 399.994,236.800 399.200 C 236.800 398.760,236.980 398.400,237.200 398.400 C 237.420 398.400,237.600 398.760,237.600 399.200 C 237.600 399.640,237.780 400.000,238.000 400.000 C 238.220 400.000,238.400 399.640,238.400 399.200 C 238.400 398.437,238.667 398.400,244.167 398.400 C 250.901 398.400,251.098 398.350,251.434 396.561 L 251.689 395.200 256.245 395.200 C 258.750 395.200,260.800 395.063,260.800 394.895 C 260.800 394.727,261.205 394.412,261.700 394.195 C 262.195 393.978,262.778 393.395,262.995 392.900 C 263.360 392.069,263.650 392.000,266.795 391.994 C 270.446 391.988,271.973 391.499,272.572 390.145 C 272.886 389.436,273.400 389.270,275.859 389.084 C 279.342 388.821,279.600 388.690,279.600 387.193 L 279.600 386.034 282.700 385.917 L 285.800 385.800 285.924 384.300 L 286.048 382.800 289.024 382.800 L 292.000 382.800 292.000 381.217 L 292.000 379.634 295.100 379.517 L 298.200 379.400 298.324 377.900 L 298.448 376.400 301.380 376.400 L 304.311 376.400 304.574 375.000 C 304.726 374.189,305.073 373.600,305.398 373.600 C 307.744 373.600,309.959 372.693,310.349 371.573 C 310.653 370.703,311.013 370.400,311.746 370.400 C 313.485 370.400,314.000 369.992,314.000 368.613 C 314.000 367.323,314.020 367.310,316.300 367.075 C 318.603 366.838,320.000 365.896,320.000 364.580 C 320.000 364.254,320.581 364.000,321.500 363.924 C 322.919 363.807,323.007 363.719,323.124 362.300 C 323.245 360.842,323.292 360.800,324.824 360.800 C 326.859 360.800,327.237 358.240,325.382 357.025 C 324.822 356.658,324.176 355.947,323.948 355.445 C 323.719 354.943,323.005 354.221,322.360 353.840 C 321.269 353.195,319.764 351.997,315.800 348.616 C 314.920 347.866,313.210 346.438,312.000 345.444 C 310.790 344.450,309.353 343.223,308.806 342.718 C 308.259 342.213,307.269 341.463,306.606 341.051 C 305.943 340.639,304.590 339.606,303.600 338.756 C 301.494 336.946,299.830 335.554,296.800 333.062 C 295.590 332.068,294.060 330.732,293.400 330.095 C 292.740 329.457,291.525 328.530,290.700 328.035 C 289.875 327.540,289.199 327.014,289.197 326.867 C 289.196 326.720,288.529 326.150,287.715 325.600 C 286.901 325.050,285.417 323.912,284.418 323.070 C 283.418 322.229,281.914 320.969,281.075 320.270 C 280.237 319.572,278.977 318.459,278.275 317.798 C 277.574 317.137,276.550 316.277,276.000 315.888 C 274.945 315.141,273.190 313.731,268.420 309.800 C 266.819 308.480,264.944 306.993,264.254 306.495 C 263.564 305.997,262.550 304.940,262.000 304.147 C 260.695 302.263,258.514 301.528,254.693 301.683 L 251.800 301.800 251.676 303.300 L 251.552 304.800 248.619 304.800 C 245.491 304.800,245.200 304.989,245.200 307.020 C 245.200 307.962,245.144 307.975,240.700 308.087 L 236.200 308.200 236.075 309.500 L 235.949 310.800 232.625 310.800 C 228.069 310.800,227.165 311.045,226.000 312.600 L 225.000 313.934 215.285 314.067 C 204.862 314.210,204.820 314.219,204.806 316.300 C 204.800 317.170,204.673 317.200,200.973 317.200 L 197.146 317.200 195.732 315.700 L 194.318 314.200 183.859 314.000 L 173.400 313.800 173.278 312.546 C 173.131 311.032,172.346 310.800,167.375 310.800 L 164.051 310.800 163.925 309.500 L 163.800 308.200 160.230 308.083 C 156.530 307.963,155.440 307.445,154.672 305.444 C 154.476 304.932,153.814 304.800,151.437 304.800 L 148.448 304.800 148.324 303.300 L 148.200 301.800 146.097 301.679 C 143.920 301.554,142.000 300.290,142.000 298.982 C 142.000 298.571,141.537 298.400,140.425 298.400 C 138.941 298.400,138.843 298.325,138.725 297.100 C 138.600 295.804,138.592 295.799,135.700 295.432 L 132.800 295.064 132.800 293.732 C 132.800 292.448,132.743 292.400,131.224 292.400 C 129.692 292.400,129.645 292.358,129.524 290.900 C 129.407 289.481,129.319 289.393,127.900 289.276 C 126.492 289.159,126.400 289.070,126.400 287.819 C 126.400 286.411,125.896 286.000,124.167 286.000 C 123.415 286.000,123.200 285.788,123.200 285.049 C 123.200 283.925,122.575 283.329,121.200 283.138 C 120.486 283.040,120.160 282.714,120.062 282.000 C 119.872 280.627,119.275 280.000,118.159 280.000 C 117.460 280.000,117.147 279.715,116.952 278.900 C 116.584 277.358,116.052 276.800,114.951 276.800 C 114.212 276.800,114.000 276.585,114.000 275.833 C 114.000 274.104,113.589 273.600,112.181 273.600 C 110.930 273.600,110.841 273.508,110.724 272.100 C 110.607 270.681,110.519 270.593,109.100 270.476 C 107.642 270.355,107.600 270.308,107.600 268.776 C 107.600 267.257,107.552 267.200,106.268 267.200 L 104.936 267.200 104.568 264.300 C 104.201 261.408,104.196 261.400,102.900 261.275 C 101.675 261.157,101.600 261.059,101.600 259.575 C 101.600 258.463,101.429 258.000,101.018 258.000 C 99.710 258.000,98.446 256.080,98.321 253.903 L 98.200 251.800 96.700 251.676 L 95.200 251.552 95.200 248.563 C 95.200 246.186,95.068 245.524,94.556 245.328 C 93.231 244.819,92.021 243.305,91.924 242.034 C 91.870 241.322,91.657 240.635,91.451 240.508 C 91.245 240.381,91.203 240.481,91.358 240.732 M44.808 330.210 C 45.581 331.141,45.029 331.317,44.202 330.402 C 43.803 329.961,43.662 329.600,43.889 329.600 C 44.116 329.600,44.530 329.874,44.808 330.210 M70.008 355.410 C 70.781 356.341,70.229 356.517,69.402 355.602 C 69.003 355.161,68.862 354.800,69.089 354.800 C 69.316 354.800,69.730 355.074,70.008 355.410 M262.400 392.338 C 262.400 392.524,262.040 393.002,261.600 393.400 C 260.716 394.200,260.470 393.541,261.300 392.598 C 261.864 391.958,262.400 391.831,262.400 392.338 " stroke="none" fill="#2cb444" fill-rule="evenodd"></path><path id="path2" d="M236.000 0.800 C 236.000 1.333,236.267 1.600,236.800 1.600 C 237.333 1.600,237.600 1.333,237.600 0.800 C 237.600 0.267,237.333 0.000,236.800 0.000 C 236.267 0.000,236.000 0.267,236.000 0.800 M260.800 6.938 C 260.800 7.733,261.001 8.000,261.600 8.000 C 262.040 8.000,262.400 7.848,262.400 7.662 C 262.400 7.476,262.040 6.998,261.600 6.600 C 260.819 5.893,260.800 5.901,260.800 6.938 M317.715 34.100 C 318.082 34.375,318.651 34.960,318.979 35.400 C 319.306 35.840,319.580 35.975,319.587 35.700 C 319.603 35.070,318.158 33.600,317.524 33.600 C 317.257 33.600,317.341 33.820,317.715 34.100 M44.200 69.600 C 43.497 70.376,43.501 70.400,44.338 70.400 C 44.933 70.400,45.200 70.153,45.200 69.600 C 45.200 69.160,45.138 68.800,45.062 68.800 C 44.986 68.800,44.598 69.160,44.200 69.600 M290.681 81.039 C 290.286 81.568,290.145 82.000,290.367 82.000 C 290.772 82.000,291.782 80.444,291.532 80.205 C 291.460 80.135,291.077 80.511,290.681 81.039 M19.107 107.200 C 18.832 107.640,18.291 108.000,17.904 108.000 C 17.295 108.000,17.200 108.403,17.200 111.000 L 17.200 114.000 16.080 114.000 C 14.383 114.000,14.000 114.673,14.000 117.655 L 14.000 120.349 12.700 120.475 L 11.400 120.600 11.034 123.900 C 10.805 125.961,10.490 127.200,10.196 127.200 C 8.896 127.200,8.208 128.871,8.004 132.521 C 7.809 136.005,7.756 136.177,6.803 136.401 C 5.196 136.778,4.812 138.131,4.806 143.455 L 4.800 148.311 3.439 148.566 C 1.640 148.904,1.600 149.070,1.600 156.233 C 1.600 162.133,1.565 162.400,0.800 162.400 C 0.006 162.400,0.000 162.667,0.000 200.000 C 0.000 237.333,0.006 237.600,0.800 237.600 C 1.565 237.600,1.600 237.867,1.600 243.767 C 1.600 250.910,1.644 251.097,3.400 251.426 L 4.723 251.675 4.862 256.976 C 5.010 262.674,5.316 263.600,7.049 263.600 C 7.971 263.600,8.000 263.697,8.000 266.813 C 8.000 269.447,8.120 270.071,8.669 270.282 C 10.246 270.887,10.669 271.837,10.942 275.384 C 11.260 279.517,11.297 279.600,12.824 279.600 L 14.000 279.600 14.000 282.320 C 14.000 285.321,14.380 286.000,16.062 286.000 C 17.154 286.000,17.166 286.030,17.282 288.900 L 17.400 291.800 18.900 291.924 C 20.358 292.045,20.400 292.092,20.400 293.624 C 20.400 295.163,20.433 295.200,21.823 295.200 C 23.526 295.200,25.585 293.704,34.082 286.292 C 34.896 285.582,36.585 284.190,37.835 283.200 C 39.084 282.210,40.757 280.848,41.553 280.174 C 42.349 279.499,43.630 278.517,44.400 277.991 C 45.170 277.466,46.250 276.610,46.800 276.091 C 47.670 275.269,51.948 271.671,56.658 267.800 C 57.461 267.140,58.783 266.150,59.595 265.600 C 60.407 265.050,61.596 264.110,62.236 263.511 C 63.871 261.980,70.366 256.512,72.820 254.600 C 73.950 253.720,75.655 252.370,76.610 251.600 C 77.564 250.830,79.367 249.390,80.615 248.400 C 81.863 247.410,83.450 246.034,84.142 245.342 C 84.834 244.649,86.076 243.803,86.903 243.461 C 87.809 243.085,88.559 242.435,88.793 241.819 C 89.199 240.751,89.971 240.542,91.161 241.179 C 91.800 241.521,91.879 241.317,91.958 239.117 C 92.052 236.522,91.750 236.017,90.100 236.006 C 89.245 236.000,89.200 235.845,89.196 232.900 C 89.189 228.201,88.915 227.144,87.411 226.006 L 86.098 225.012 85.924 214.606 C 85.739 203.531,85.581 202.611,83.788 202.161 C 82.426 201.819,82.271 197.822,83.604 197.399 C 85.471 196.806,85.752 195.276,85.925 184.798 L 86.087 174.997 87.402 173.998 C 88.889 172.871,89.216 171.513,89.177 166.644 C 89.135 161.504,88.854 160.709,86.872 160.135 C 85.850 159.839,84.300 158.859,83.050 157.719 C 81.894 156.663,80.089 155.170,79.041 154.400 C 77.992 153.630,76.204 152.219,75.067 151.265 C 72.867 149.418,72.191 148.846,66.687 144.180 C 64.754 142.541,62.684 140.894,62.087 140.519 C 61.489 140.144,60.280 139.229,59.400 138.487 C 55.176 134.922,54.229 134.114,52.973 133.000 C 52.229 132.340,50.613 130.990,49.383 130.000 C 48.152 129.010,46.338 127.526,45.352 126.703 C 44.365 125.879,43.171 124.998,42.698 124.745 C 42.225 124.492,41.251 123.726,40.534 123.043 C 38.147 120.767,35.212 118.305,29.758 114.000 C 28.503 113.010,26.599 111.435,25.525 110.500 C 24.239 109.380,23.196 108.800,22.467 108.800 C 21.193 108.800,20.400 108.156,20.400 107.120 C 20.400 106.163,19.729 106.205,19.107 107.200 M118.074 118.282 C 117.564 118.831,117.250 119.383,117.375 119.508 C 117.638 119.771,119.600 118.026,119.600 117.530 C 119.600 116.966,119.039 117.243,118.074 118.282 M20.570 297.478 C 20.629 297.875,20.809 298.170,20.971 298.133 C 21.579 297.996,21.602 297.700,21.042 297.235 C 20.572 296.845,20.484 296.890,20.570 297.478 " stroke="none" fill="#fbbb04" fill-rule="evenodd"></path><path id="path3" d="M201.881 161.053 C 201.502 161.432,201.571 243.729,201.951 244.331 C 202.226 244.768,211.585 244.875,254.523 244.931 C 294.065 244.983,306.875 245.115,307.232 245.472 C 307.595 245.835,307.531 245.918,306.952 245.829 C 306.539 245.765,306.068 245.913,305.906 246.157 C 305.705 246.461,305.610 246.435,305.606 246.076 C 305.603 245.788,305.429 245.659,305.219 245.788 C 305.010 245.918,304.842 247.302,304.847 248.864 C 304.853 250.593,304.666 251.879,304.369 252.152 C 304.005 252.487,303.954 252.474,304.165 252.100 C 304.538 251.439,302.738 251.422,302.080 252.080 C 301.420 252.740,301.437 254.545,302.100 254.147 C 302.482 253.918,302.478 253.997,302.086 254.481 C 301.803 254.830,301.600 255.270,301.633 255.458 C 301.977 257.373,301.587 258.000,300.054 258.000 C 298.637 258.000,298.507 258.092,298.497 259.100 C 298.478 261.013,298.414 261.200,297.776 261.200 C 297.425 261.200,297.271 261.392,297.425 261.640 C 297.600 261.923,297.359 261.904,296.748 261.586 C 296.227 261.314,295.933 261.234,296.097 261.409 C 296.260 261.584,296.220 261.935,296.008 262.191 C 295.796 262.446,295.506 263.633,295.364 264.828 C 295.040 267.553,295.076 267.502,293.618 267.288 C 292.416 267.111,292.400 267.132,292.400 268.899 C 292.400 270.593,292.346 270.679,291.400 270.498 C 290.816 270.386,290.400 270.493,290.400 270.753 C 290.400 270.999,290.593 271.200,290.829 271.200 C 291.064 271.200,290.973 271.485,290.625 271.832 C 290.277 272.180,290.112 272.658,290.258 272.894 C 290.416 273.150,290.335 273.207,290.059 273.036 C 289.803 272.878,289.298 273.044,288.937 273.406 C 288.576 273.767,287.954 273.977,287.555 273.872 C 286.639 273.633,285.976 274.404,286.222 275.421 C 286.535 276.716,283.949 278.632,283.442 277.479 C 283.327 277.216,283.334 277.495,283.459 278.100 C 283.604 278.802,283.518 279.200,283.220 279.200 C 282.963 279.200,282.864 279.380,283.000 279.600 C 283.140 279.826,282.814 280.000,282.252 280.000 C 280.980 280.000,280.000 280.980,280.000 282.252 C 280.000 282.814,279.826 283.140,279.600 283.000 C 279.380 282.864,279.200 282.963,279.200 283.220 C 279.200 283.518,278.802 283.604,278.100 283.459 C 277.495 283.334,277.216 283.327,277.479 283.442 C 278.632 283.949,276.716 286.535,275.421 286.222 C 274.404 285.976,273.633 286.639,273.872 287.555 C 273.977 287.954,273.767 288.576,273.406 288.937 C 273.044 289.298,272.878 289.803,273.036 290.059 C 273.207 290.335,273.150 290.416,272.894 290.258 C 272.658 290.112,272.180 290.277,271.832 290.625 C 271.485 290.973,271.200 291.064,271.200 290.829 C 271.200 290.593,271.007 290.400,270.771 290.400 C 270.536 290.400,270.401 290.894,270.471 291.498 C 270.547 292.141,270.406 292.597,270.133 292.598 C 269.877 292.599,269.532 292.735,269.367 292.900 C 268.918 293.348,267.914 293.262,268.200 292.800 C 268.336 292.580,268.148 292.400,267.782 292.400 C 267.254 292.400,267.146 292.710,267.259 293.900 L 267.403 295.400 265.651 295.339 C 263.137 295.250,261.431 295.974,261.261 297.200 C 261.087 298.450,261.234 298.346,259.485 298.464 C 258.517 298.529,258.000 298.761,258.000 299.131 C 258.000 299.532,258.146 299.580,258.500 299.296 C 259.758 298.286,261.949 298.501,261.808 299.620 C 261.639 300.950,261.846 301.225,263.746 302.204 C 264.597 302.642,265.465 303.371,265.675 303.823 C 265.886 304.276,266.810 304.996,267.729 305.423 C 268.806 305.924,269.443 306.501,269.521 307.048 C 269.602 307.613,270.069 308.016,270.921 308.254 C 271.786 308.496,272.394 309.027,272.800 309.897 C 273.192 310.738,273.690 311.186,274.238 311.191 C 275.204 311.201,276.400 312.368,276.400 313.300 C 276.400 313.686,276.885 314.043,277.631 314.207 C 278.309 314.356,279.344 315.019,279.931 315.680 C 280.519 316.342,281.819 317.300,282.821 317.808 C 283.822 318.317,284.841 319.172,285.086 319.710 C 285.359 320.309,285.990 320.778,286.720 320.924 C 287.577 321.095,288.025 321.496,288.327 322.362 C 288.633 323.239,289.103 323.654,290.073 323.901 C 291.092 324.160,291.489 324.535,291.783 325.519 C 292.056 326.433,292.407 326.800,293.006 326.800 C 294.094 326.800,295.096 327.591,295.269 328.586 C 295.355 329.079,295.904 329.515,296.744 329.755 C 297.480 329.967,298.808 330.816,299.696 331.644 C 300.583 332.471,301.813 333.357,302.428 333.612 C 303.054 333.871,303.718 334.563,303.933 335.180 C 304.208 335.969,304.677 336.355,305.578 336.536 C 306.495 336.719,306.947 337.101,307.240 337.942 C 307.519 338.742,308.035 339.207,308.921 339.458 C 309.879 339.728,310.296 340.143,310.583 341.109 C 310.887 342.134,311.180 342.400,312.004 342.400 C 312.676 342.400,313.530 342.910,314.422 343.844 C 315.180 344.639,316.549 345.615,317.464 346.015 C 318.395 346.421,319.245 347.111,319.394 347.581 C 319.541 348.044,320.315 348.732,321.114 349.111 C 322.031 349.545,322.653 350.165,322.799 350.787 C 322.968 351.510,323.387 351.846,324.367 352.047 C 326.098 352.401,326.386 352.919,326.394 355.687 C 326.400 357.968,327.082 358.507,328.094 357.029 C 328.291 356.741,328.390 356.764,328.394 357.100 C 328.397 357.375,328.692 357.600,329.049 357.600 C 329.608 357.600,329.622 357.506,329.149 356.923 C 328.680 356.346,328.683 356.297,329.168 356.589 C 329.594 356.846,329.672 356.765,329.481 356.266 C 328.988 354.983,329.573 354.425,331.236 354.590 C 332.116 354.678,332.800 354.571,332.800 354.346 C 332.800 354.125,333.166 354.062,333.619 354.206 C 334.759 354.568,335.708 353.683,335.418 352.530 C 335.223 351.754,335.341 351.600,336.126 351.600 C 336.643 351.600,337.202 351.465,337.367 351.300 C 337.532 351.135,337.876 351.000,338.133 351.000 C 338.389 351.000,338.617 350.730,338.639 350.400 C 338.752 348.675,338.837 348.400,339.256 348.400 C 339.507 348.400,339.970 348.085,340.286 347.700 C 340.601 347.315,340.753 347.213,340.623 347.472 C 340.280 348.160,341.187 348.579,341.735 347.986 C 342.097 347.594,342.068 347.553,341.600 347.800 C 341.112 348.058,341.094 348.016,341.500 347.579 C 341.775 347.282,342.000 346.516,342.000 345.876 C 342.000 344.743,341.981 344.732,341.300 345.475 C 340.915 345.894,340.775 345.959,340.988 345.619 C 341.965 344.061,342.703 343.601,343.222 344.226 C 343.627 344.715,343.598 344.774,343.057 344.566 C 342.693 344.427,342.400 344.511,342.400 344.754 C 342.400 345.009,342.927 345.136,343.659 345.055 C 344.916 344.918,345.954 342.400,344.754 342.400 C 344.511 342.400,344.427 342.693,344.566 343.057 C 344.778 343.607,344.720 343.631,344.205 343.204 C 343.715 342.797,343.693 342.605,344.096 342.247 C 344.373 342.001,344.936 341.440,345.347 341.000 C 346.089 340.205,346.091 340.205,345.632 341.101 C 345.194 341.957,345.240 341.997,346.546 341.901 C 347.303 341.845,347.839 341.665,347.737 341.500 C 347.636 341.335,347.754 341.200,348.000 341.200 C 348.246 341.200,348.336 341.021,348.201 340.802 C 347.717 340.018,347.680 338.933,348.136 338.888 C 348.391 338.863,349.169 338.806,349.864 338.762 C 350.742 338.705,351.065 338.515,350.922 338.140 C 350.808 337.843,350.902 337.600,351.131 337.600 C 351.360 337.600,351.604 337.105,351.673 336.500 C 351.780 335.573,351.988 335.400,353.000 335.400 C 354.113 335.400,354.191 335.306,354.074 334.100 C 354.005 333.385,354.101 332.800,354.287 332.800 C 354.473 332.800,354.664 332.340,354.710 331.778 C 354.757 331.216,354.642 330.851,354.455 330.966 C 354.268 331.081,354.193 330.772,354.287 330.278 C 354.435 329.505,354.683 329.393,356.070 329.471 L 357.682 329.561 357.417 328.149 C 357.191 326.944,357.272 326.706,357.972 326.523 C 358.447 326.399,358.677 326.118,358.519 325.855 C 358.369 325.605,358.549 325.645,358.918 325.945 C 359.959 326.789,360.800 326.215,360.800 324.662 C 360.800 323.864,361.081 323.070,361.477 322.749 C 361.937 322.376,362.057 322.360,361.853 322.700 C 361.652 323.034,361.821 323.200,362.362 323.200 C 363.342 323.200,364.000 322.085,364.000 320.426 C 364.000 319.698,364.207 319.200,364.511 319.200 C 365.141 319.200,367.233 316.871,367.159 316.252 C 366.997 314.895,367.262 314.000,367.824 314.000 C 368.193 314.000,368.331 313.812,368.162 313.538 C 367.966 313.222,368.053 313.187,368.438 313.427 C 369.298 313.964,369.995 313.980,370.043 313.465 C 370.066 313.209,370.125 312.730,370.174 312.400 C 370.223 312.070,370.294 311.491,370.332 311.113 C 370.373 310.691,370.623 310.511,370.976 310.646 C 371.292 310.768,371.877 310.663,372.276 310.414 C 372.899 310.025,372.861 309.998,372.000 310.222 C 371.034 310.474,371.027 310.462,371.796 309.877 C 372.233 309.544,372.735 309.360,372.912 309.469 C 373.088 309.578,373.120 309.222,372.984 308.677 C 372.847 308.133,372.924 307.571,373.154 307.428 C 373.385 307.286,373.472 306.662,373.348 306.042 C 373.138 304.991,374.539 304.104,376.053 304.331 C 376.192 304.352,376.299 304.151,376.290 303.884 C 376.161 299.983,376.432 298.400,377.226 298.400 C 378.762 298.400,379.726 297.636,379.126 296.895 C 378.740 296.419,378.733 296.326,379.100 296.547 C 379.375 296.712,379.600 296.657,379.600 296.424 C 379.600 296.191,379.375 295.997,379.100 295.994 C 378.717 295.989,378.721 295.911,379.121 295.657 C 379.408 295.475,379.611 295.163,379.574 294.963 C 379.281 293.410,379.660 292.000,380.371 292.000 C 380.795 292.000,381.224 291.685,381.324 291.300 C 381.498 290.633,381.509 290.633,381.554 291.300 C 381.702 293.535,382.686 291.752,382.763 289.109 C 382.850 286.147,383.211 285.449,384.500 285.757 C 385.680 286.040,386.354 283.639,385.436 282.423 C 385.106 281.987,385.122 281.920,385.500 282.147 C 385.863 282.365,386.000 282.056,386.000 281.024 C 386.000 279.643,386.461 279.315,388.076 279.545 C 388.706 279.634,388.823 277.965,388.227 277.370 C 387.546 276.689,387.385 276.220,387.954 276.571 C 388.675 277.017,389.298 274.450,389.017 272.195 C 388.864 270.977,388.888 270.006,389.070 270.037 C 389.251 270.069,389.580 270.054,389.800 270.005 C 390.020 269.955,390.560 269.889,391.000 269.857 C 391.565 269.817,391.838 269.465,391.931 268.657 C 392.015 267.918,391.909 267.609,391.631 267.781 C 391.394 267.927,391.200 267.857,391.200 267.624 C 391.200 267.391,391.372 267.200,391.581 267.200 C 391.791 267.200,391.945 266.795,391.925 266.300 C 391.814 263.662,391.976 263.138,392.819 263.406 C 393.680 263.679,394.809 263.018,394.788 262.251 C 394.781 262.003,394.592 262.115,394.368 262.500 C 394.144 262.885,393.686 263.200,393.350 263.200 C 392.877 263.200,392.949 262.942,393.670 262.052 C 394.181 261.421,394.780 261.005,395.000 261.129 C 395.220 261.252,395.130 261.014,394.800 260.600 C 394.434 260.141,394.398 259.966,394.707 260.151 C 395.101 260.388,395.201 259.799,395.152 257.528 C 395.036 252.136,395.113 251.600,396.000 251.600 C 396.440 251.600,396.800 251.401,396.800 251.157 C 396.800 250.914,397.061 250.814,397.380 250.937 C 397.787 251.093,397.886 250.967,397.712 250.514 C 397.566 250.135,397.629 249.971,397.864 250.116 C 398.109 250.267,398.282 249.588,398.310 248.372 C 398.343 246.927,398.224 246.459,397.878 246.667 C 397.514 246.885,397.510 246.815,397.858 246.377 C 398.156 246.001,398.295 243.979,398.258 240.575 C 398.200 235.358,398.202 235.349,399.100 235.521 L 400.000 235.693 400.000 200.447 L 400.000 165.200 399.100 165.160 C 398.237 165.122,398.241 165.107,399.200 164.800 C 400.159 164.493,400.163 164.478,399.300 164.440 C 398.548 164.407,398.400 164.173,398.400 163.014 C 398.400 162.066,398.162 161.501,397.647 161.225 C 396.515 160.619,203.200 160.637,203.200 161.244 C 203.200 161.578,203.059 161.581,202.663 161.252 C 202.368 161.007,202.016 160.917,201.881 161.053 M298.008 263.790 C 297.730 264.126,297.316 264.400,297.089 264.400 C 296.862 264.400,297.003 264.039,297.402 263.598 C 298.229 262.683,298.781 262.859,298.008 263.790 M289.412 271.317 C 289.241 271.712,289.213 272.147,289.351 272.284 C 289.757 272.690,290.084 272.120,289.897 271.331 C 289.732 270.633,289.710 270.632,289.412 271.317 M281.486 281.300 C 280.999 281.795,280.538 282.059,280.462 281.887 C 280.261 281.428,281.210 280.400,281.835 280.400 C 282.180 280.400,282.056 280.721,281.486 281.300 M385.200 284.400 C 385.200 284.977,384.949 285.187,384.300 285.154 C 383.623 285.119,383.573 285.062,384.100 284.924 C 384.485 284.824,384.800 284.485,384.800 284.171 C 384.800 283.857,384.890 283.600,385.000 283.600 C 385.110 283.600,385.200 283.960,385.200 284.400 M271.000 289.600 C 270.864 289.820,271.123 290.000,271.576 290.000 C 272.029 290.000,272.400 289.820,272.400 289.600 C 272.400 289.380,272.141 289.200,271.824 289.200 C 271.507 289.200,271.136 289.380,271.000 289.600 M264.234 296.786 C 263.940 297.124,263.753 297.725,263.818 298.122 C 263.906 298.664,263.809 298.740,263.431 298.426 C 263.154 298.195,262.847 298.087,262.749 298.184 C 262.651 298.282,262.571 298.024,262.571 297.610 C 262.571 297.197,262.713 296.946,262.886 297.053 C 263.059 297.160,263.200 297.005,263.200 296.709 C 263.200 296.413,263.553 296.171,263.984 296.171 C 264.655 296.171,264.691 296.260,264.234 296.786 " stroke="none" fill="#548cfc" fill-rule="evenodd"></path><path id="path4" d="M393.300 161.076 C 393.685 161.176,394.315 161.176,394.700 161.076 C 395.085 160.975,394.770 160.893,394.000 160.893 C 393.230 160.893,392.915 160.975,393.300 161.076 M398.325 236.471 C 398.541 237.940,400.000 238.093,400.000 236.647 C 400.000 235.969,399.733 235.642,399.080 235.517 C 398.267 235.362,398.179 235.474,398.325 236.471 M231.931 245.100 C 245.423 245.158,267.383 245.158,280.731 245.100 C 294.079 245.041,283.040 244.994,256.200 244.994 C 229.360 244.994,218.439 245.042,231.931 245.100 M304.962 245.662 C 304.785 245.948,304.852 246.015,305.138 245.838 C 305.397 245.678,305.603 245.783,305.606 246.076 C 305.610 246.435,305.705 246.461,305.906 246.157 C 306.068 245.913,306.516 245.762,306.902 245.822 C 307.288 245.881,307.502 245.766,307.378 245.565 C 307.056 245.043,305.301 245.114,304.962 245.662 M300.480 256.880 C 299.775 257.585,299.893 258.000,300.800 258.000 C 301.333 258.000,301.600 257.733,301.600 257.200 C 301.600 256.293,301.185 256.175,300.480 256.880 M394.505 260.872 C 394.471 261.322,394.118 262.056,393.721 262.503 C 393.195 263.097,393.157 263.267,393.582 263.131 C 394.262 262.914,395.332 260.529,394.876 260.247 C 394.706 260.142,394.538 260.423,394.505 260.872 M296.100 261.465 C 295.825 261.576,295.600 261.854,295.600 262.082 C 295.600 262.339,295.823 262.313,296.182 262.015 C 296.503 261.749,296.981 261.664,297.244 261.827 C 297.548 262.015,297.619 261.954,297.438 261.662 C 297.136 261.173,296.907 261.139,296.100 261.465 M297.402 263.598 C 297.003 264.039,296.862 264.400,297.089 264.400 C 297.592 264.400,298.590 263.257,298.321 262.988 C 298.215 262.882,297.802 263.156,297.402 263.598 M391.000 269.428 C 391.792 270.093,391.791 270.098,390.900 269.888 C 390.406 269.771,389.898 269.841,389.773 270.044 C 389.647 270.247,389.377 270.309,389.172 270.183 C 388.968 270.056,388.800 270.420,388.800 270.990 C 388.800 271.904,388.896 271.977,389.600 271.600 C 390.040 271.365,390.400 270.998,390.400 270.786 C 390.400 270.574,390.659 270.400,390.976 270.400 C 391.977 270.400,392.060 269.658,391.111 269.198 C 390.217 268.764,390.215 268.768,391.000 269.428 M289.362 270.862 C 289.185 271.148,289.252 271.215,289.538 271.038 C 289.828 270.859,290.000 271.048,290.000 271.543 C 290.000 271.978,289.784 272.405,289.520 272.493 C 289.225 272.592,289.310 272.757,289.741 272.922 C 290.135 273.073,290.341 273.028,290.212 272.819 C 290.086 272.615,290.229 272.217,290.531 271.935 C 290.977 271.519,290.984 271.327,290.569 270.911 C 289.938 270.281,289.726 270.272,289.362 270.862 M388.608 275.976 C 388.462 276.435,388.177 276.710,387.976 276.585 C 387.774 276.460,387.716 276.638,387.847 276.979 C 388.084 277.595,388.858 277.875,388.736 277.300 C 388.702 277.135,388.814 276.677,388.986 276.283 C 389.158 275.888,389.203 275.470,389.086 275.353 C 388.969 275.236,388.754 275.516,388.608 275.976 M283.829 277.429 C 283.483 277.774,283.221 278.359,283.246 278.729 C 283.285 279.292,283.323 279.282,283.482 278.666 C 283.587 278.262,284.241 277.684,284.936 277.381 C 285.974 276.930,286.044 276.829,285.329 276.816 C 284.849 276.807,284.174 277.083,283.829 277.429 M280.792 281.010 C 280.019 281.941,280.571 282.117,281.398 281.202 C 281.797 280.761,281.938 280.400,281.711 280.400 C 281.484 280.400,281.070 280.674,280.792 281.010 M277.429 283.829 C 277.083 284.174,276.807 284.849,276.816 285.329 C 276.829 286.044,276.930 285.974,277.381 284.936 C 277.684 284.241,278.262 283.587,278.666 283.482 C 279.282 283.323,279.292 283.285,278.729 283.246 C 278.359 283.221,277.774 283.483,277.429 283.829 M384.800 284.171 C 384.800 284.485,384.485 284.824,384.100 284.924 C 383.573 285.062,383.623 285.119,384.300 285.154 C 384.949 285.187,385.200 284.977,385.200 284.400 C 385.200 283.960,385.110 283.600,385.000 283.600 C 384.890 283.600,384.800 283.857,384.800 284.171 M270.598 289.603 C 270.144 290.338,271.340 291.169,271.935 290.531 C 272.217 290.229,272.615 290.086,272.819 290.212 C 273.028 290.341,273.073 290.135,272.922 289.741 C 272.757 289.310,272.592 289.225,272.493 289.520 C 272.405 289.784,271.978 290.000,271.543 290.000 C 271.108 290.000,270.864 289.820,271.000 289.600 C 271.136 289.380,271.157 289.200,271.047 289.200 C 270.937 289.200,270.735 289.381,270.598 289.603 M381.232 291.300 C 381.213 291.723,380.883 292.000,380.400 292.000 C 379.867 292.000,379.600 292.267,379.600 292.800 C 379.600 293.240,379.776 293.600,379.991 293.600 C 380.577 293.600,381.706 291.701,381.469 291.113 C 381.340 290.791,381.251 290.861,381.232 291.300 M263.200 296.709 C 263.200 297.005,263.059 297.160,262.886 297.053 C 262.713 296.946,262.571 297.197,262.571 297.610 C 262.571 298.024,262.651 298.282,262.749 298.184 C 262.847 298.087,263.154 298.195,263.431 298.426 C 263.809 298.740,263.906 298.664,263.818 298.122 C 263.753 297.725,263.940 297.124,264.234 296.786 C 264.691 296.260,264.655 296.171,263.984 296.171 C 263.553 296.171,263.200 296.413,263.200 296.709 M258.645 298.872 C 258.737 299.022,258.621 299.263,258.387 299.408 C 258.096 299.588,258.125 299.874,258.481 300.312 C 258.910 300.842,258.907 300.897,258.462 300.629 C 258.074 300.396,257.963 300.514,258.066 301.053 C 258.151 301.493,258.783 301.983,259.605 302.246 C 260.452 302.517,261.393 303.262,262.000 304.141 C 262.550 304.938,263.564 305.997,264.254 306.495 C 264.944 306.993,266.819 308.480,268.420 309.800 C 273.190 313.731,274.945 315.141,276.000 315.888 C 276.550 316.277,277.574 317.137,278.275 317.798 C 278.977 318.459,280.237 319.572,281.075 320.270 C 281.914 320.969,283.418 322.229,284.418 323.070 C 285.417 323.912,286.901 325.050,287.715 325.600 C 288.529 326.150,289.196 326.720,289.197 326.867 C 289.199 327.014,289.875 327.540,290.700 328.035 C 291.525 328.530,292.740 329.457,293.400 330.095 C 294.060 330.732,295.590 332.068,296.800 333.062 C 299.830 335.554,301.494 336.946,303.600 338.756 C 304.590 339.606,305.943 340.639,306.606 341.051 C 307.269 341.463,308.259 342.213,308.806 342.718 C 309.353 343.223,310.790 344.450,312.000 345.444 C 313.210 346.438,314.920 347.866,315.800 348.616 C 319.735 351.972,321.264 353.193,322.307 353.809 C 322.922 354.172,323.717 354.978,324.074 355.600 C 325.422 357.949,326.401 357.912,326.394 355.514 C 326.386 352.924,326.078 352.397,324.367 352.047 C 323.387 351.846,322.968 351.510,322.799 350.787 C 322.653 350.165,322.031 349.545,321.114 349.111 C 320.315 348.732,319.541 348.044,319.394 347.581 C 319.245 347.111,318.395 346.421,317.464 346.015 C 316.549 345.615,315.180 344.639,314.422 343.844 C 313.530 342.910,312.676 342.400,312.004 342.400 C 311.180 342.400,310.887 342.134,310.583 341.109 C 310.296 340.143,309.879 339.728,308.921 339.458 C 308.035 339.207,307.519 338.742,307.240 337.942 C 306.947 337.101,306.495 336.719,305.578 336.536 C 304.677 336.355,304.208 335.969,303.933 335.180 C 303.718 334.563,303.054 333.871,302.428 333.612 C 301.813 333.357,300.583 332.471,299.696 331.644 C 298.808 330.816,297.480 329.967,296.744 329.755 C 295.904 329.515,295.355 329.079,295.269 328.586 C 295.096 327.591,294.094 326.800,293.006 326.800 C 292.407 326.800,292.056 326.433,291.783 325.519 C 291.489 324.535,291.092 324.160,290.073 323.901 C 289.103 323.654,288.633 323.239,288.327 322.362 C 288.025 321.496,287.577 321.095,286.720 320.924 C 285.990 320.778,285.359 320.309,285.086 319.710 C 284.841 319.172,283.822 318.317,282.821 317.808 C 281.819 317.300,280.519 316.342,279.931 315.680 C 279.344 315.019,278.309 314.356,277.631 314.207 C 276.823 314.029,276.400 313.694,276.400 313.230 C 276.400 312.330,275.166 311.203,274.169 311.191 C 273.699 311.186,273.167 310.682,272.800 309.897 C 272.394 309.027,271.786 308.496,270.921 308.254 C 270.069 308.016,269.602 307.613,269.521 307.048 C 269.443 306.501,268.806 305.924,267.729 305.423 C 266.810 304.996,265.886 304.276,265.675 303.823 C 265.465 303.371,264.597 302.642,263.746 302.204 C 261.850 301.227,261.639 300.949,261.806 299.637 C 261.929 298.661,261.835 298.600,260.207 298.600 C 259.255 298.600,258.552 298.723,258.645 298.872 M354.296 330.233 C 354.200 330.735,354.345 331.067,354.661 331.067 C 354.950 331.067,355.538 330.692,355.969 330.233 C 356.751 329.401,356.751 329.400,355.603 329.400 C 354.757 329.400,354.413 329.619,354.296 330.233 M44.202 330.402 C 44.602 330.844,45.015 331.118,45.121 331.012 C 45.390 330.743,44.392 329.600,43.889 329.600 C 43.662 329.600,43.803 329.961,44.202 330.402 M353.928 333.690 C 353.858 334.179,353.350 334.807,352.800 335.084 C 352.116 335.429,352.012 335.590,352.471 335.594 C 353.372 335.602,354.400 334.524,354.400 333.571 C 354.400 332.518,354.085 332.597,353.928 333.690 M344.748 341.574 C 343.816 342.636,343.777 342.806,344.342 343.371 C 344.831 343.860,344.861 344.099,344.480 344.480 C 344.099 344.861,343.854 344.826,343.345 344.316 C 342.652 343.624,342.019 343.974,340.988 345.619 C 340.775 345.959,340.915 345.894,341.300 345.475 C 341.685 345.055,342.003 344.866,342.006 345.056 C 342.009 345.245,342.176 345.142,342.376 344.826 C 342.682 344.342,342.841 344.336,343.390 344.791 C 343.941 345.249,344.139 345.232,344.686 344.686 C 345.232 344.139,345.249 343.941,344.791 343.390 C 344.434 342.959,344.392 342.648,344.666 342.470 C 345.071 342.206,346.151 340.400,345.903 340.400 C 345.834 340.400,345.315 340.928,344.748 341.574 M329.441 355.036 C 329.039 356.085,329.613 356.512,330.430 355.773 C 330.843 355.399,331.085 354.937,330.967 354.747 C 330.616 354.179,329.704 354.353,329.441 355.036 M69.402 355.602 C 69.802 356.044,70.215 356.318,70.321 356.212 C 70.590 355.943,69.592 354.800,69.089 354.800 C 68.862 354.800,69.003 355.161,69.402 355.602 M261.300 392.598 C 260.470 393.541,260.716 394.200,261.600 393.400 C 262.407 392.670,262.654 391.987,262.100 392.015 C 261.935 392.024,261.575 392.286,261.300 392.598 M236.800 399.200 C 236.800 399.640,236.980 400.000,237.200 400.000 C 237.420 400.000,237.600 399.640,237.600 399.200 C 237.600 398.760,237.420 398.400,237.200 398.400 C 236.980 398.400,236.800 398.760,236.800 399.200 " stroke="none" fill="#4c94e0" fill-rule="evenodd"></path></g></svg>